<?xml version="1.0" standalone="no"?>
<!DOCTYPE svg PUBLIC "-//W3C//DTD SVG 20010904//EN"
 "http://www.w3.org/TR/2001/REC-SVG-20010904/DTD/svg10.dtd">
<svg version="1.0" xmlns="http://www.w3.org/2000/svg"
 width="1074.000000pt" height="1074.000000pt" viewBox="0 0 1074.000000 1074.000000"
 preserveAspectRatio="xMidYMid meet">
<metadata>
Created by potrace 1.11, written by Peter Selinger 2001-2013
</metadata>
<g transform="translate(0.000000,1074.000000) scale(0.100000,-0.100000)"
fill="#000000" stroke="none">
<path d="M5035 10724 c-776 -60 -1432 -239 -2085 -570 -515 -261 -957 -582
-1370 -994 -412 -413 -733 -855 -994 -1370 -300 -592 -478 -1196 -553 -1880
-26 -235 -26 -844 0 -1080 139 -1260 667 -2369 1547 -3250 798 -797 1798
-1313 2905 -1499 335 -56 472 -66 885 -66 413 0 550 10 885 66 1107 186 2107
702 2905 1499 880 881 1408 1990 1547 3250 26 236 26 845 0 1080 -139 1260
-667 2369 -1547 3250 -878 877 -1989 1408 -3240 1546 -138 15 -757 28 -885 18z
m1609 -2573 c9 -53 24 -177 55 -446 15 -126 29 -250 42 -352 25 -212 30 -253
39 -333 5 -47 14 -123 20 -170 6 -47 15 -123 20 -170 6 -47 15 -123 21 -170
11 -90 21 -178 38 -325 6 -49 15 -128 21 -175 15 -121 29 -245 36 -320 5 -69
21 -120 35 -120 5 0 9 15 9 34 0 19 5 38 10 41 6 3 10 15 10 27 0 21 36 140
51 170 5 10 9 25 9 33 0 8 5 15 10 15 6 0 10 11 10 24 0 14 5 28 10 31 6 3 10
15 10 26 0 10 5 19 10 19 6 0 10 9 10 20 0 11 5 20 10 20 6 0 10 9 10 20 0 11
5 20 10 20 6 0 10 9 10 20 0 11 5 20 10 20 6 0 10 9 10 20 0 11 5 20 10 20 6
0 10 9 10 20 0 11 5 20 10 20 6 0 10 8 10 18 0 10 9 24 20 32 11 8 20 21 20
30 0 9 9 22 20 30 11 8 20 21 20 30 0 9 9 22 20 30 11 8 20 20 20 28 0 7 23
35 50 62 28 27 50 54 50 60 0 14 126 140 141 140 6 0 28 18 49 40 21 22 45 40
52 40 7 0 20 9 28 20 8 11 21 20 30 20 9 0 22 9 30 20 8 11 22 20 32 20 10 0
18 5 18 10 0 6 9 10 19 10 11 0 21 3 23 8 4 10 87 52 104 52 8 0 14 5 14 10 0
6 11 10 23 10 13 0 27 3 31 7 10 11 79 33 103 33 12 0 25 5 28 10 3 6 26 10
51 10 24 0 44 5 44 10 0 6 80 10 219 10 136 0 222 -4 226 -10 3 -5 26 -10 50
-10 24 0 47 -4 50 -10 3 -5 22 -10 41 -10 19 0 34 -4 34 -10 0 -5 13 -10 29
-10 17 0 33 -4 36 -10 3 -5 19 -10 35 -10 16 0 32 -4 35 -10 3 -5 15 -10 26
-10 10 0 19 -4 19 -10 0 -5 9 -10 20 -10 11 0 35 -9 55 -20 20 -11 42 -20 49
-20 8 0 16 -3 18 -7 2 -5 24 -19 51 -32 26 -13 47 -28 47 -33 0 -4 9 -8 20 -8
11 0 20 -4 20 -10 0 -5 6 -10 13 -10 7 0 23 -9 35 -20 12 -11 25 -20 30 -20 5
0 23 -13 40 -30 18 -16 36 -30 42 -30 16 0 280 -269 280 -285 0 -8 4 -15 8
-15 5 0 15 -12 23 -27 8 -16 22 -37 32 -47 9 -11 17 -26 17 -33 0 -7 4 -13 9
-13 11 0 91 -162 91 -183 0 -9 4 -18 8 -21 11 -7 46 -120 82 -266 38 -153 33
-484 -11 -660 -6 -25 -13 -62 -16 -83 -3 -20 -9 -40 -14 -43 -5 -3 -9 -16 -9
-29 0 -13 -4 -27 -10 -30 -5 -3 -10 -17 -10 -30 0 -13 -4 -27 -10 -30 -5 -3
-10 -15 -10 -25 0 -11 -9 -35 -20 -55 -11 -20 -20 -42 -20 -50 0 -8 -4 -15
-10 -15 -5 0 -10 -8 -10 -18 0 -22 -91 -205 -113 -227 -21 -20 -26 -20 -92 15
-31 17 -66 30 -76 30 -10 0 -19 5 -19 10 0 6 -9 10 -20 10 -11 0 -20 5 -20 10
0 6 -9 10 -20 10 -11 0 -20 5 -20 10 0 6 -9 10 -20 10 -11 0 -20 5 -20 10 0 6
-9 10 -20 10 -11 0 -20 5 -20 10 0 6 -9 10 -20 10 -11 0 -20 5 -20 10 0 6 -9
10 -20 10 -11 0 -20 5 -20 10 0 6 -9 10 -20 10 -11 0 -20 5 -20 10 0 6 -9 10
-20 10 -11 0 -20 5 -20 10 0 6 -9 10 -20 10 -11 0 -20 5 -20 10 0 6 -9 10 -20
10 -11 0 -20 5 -20 10 0 6 -9 10 -19 10 -11 0 -23 5 -26 10 -3 6 -17 10 -31
10 -13 0 -24 5 -24 10 0 6 -9 10 -20 10 -11 0 -20 5 -20 10 0 6 -9 10 -20 10
-11 0 -20 5 -20 10 0 6 -9 10 -20 10 -11 0 -20 5 -20 10 0 6 -9 10 -20 10 -11
0 -20 5 -20 10 0 6 -9 10 -20 10 -11 0 -20 5 -20 10 0 6 -9 10 -20 10 -11 0
-20 5 -20 10 0 6 -9 10 -20 10 -11 0 -20 5 -20 10 0 6 -9 10 -20 10 -11 0 -20
5 -20 10 0 6 -9 10 -20 10 -11 0 -20 5 -20 10 0 6 -9 10 -20 10 -11 0 -20 5
-20 10 0 6 -9 10 -20 10 -11 0 -20 5 -20 10 0 6 -9 10 -19 10 -11 0 -23 5 -26
10 -3 6 -17 10 -31 10 -13 0 -24 5 -24 10 0 6 -9 10 -20 10 -11 0 -20 5 -20
10 0 6 -9 10 -20 10 -11 0 -20 5 -20 10 0 6 -9 10 -20 10 -11 0 -20 5 -20 10
0 6 -9 10 -20 10 -11 0 -20 5 -20 10 0 6 -9 10 -20 10 -11 0 -20 5 -20 10 0 6
-9 10 -20 10 -11 0 -20 5 -20 10 0 6 -9 10 -20 10 -11 0 -20 5 -20 10 0 6 -9
10 -20 10 -11 0 -20 5 -20 10 0 6 -9 10 -20 10 -11 0 -20 5 -20 10 0 6 -9 10
-20 10 -11 0 -20 5 -20 10 0 6 -9 10 -20 10 -11 0 -20 5 -20 10 0 6 -9 10 -19
10 -11 0 -23 5 -26 10 -3 6 -17 10 -31 10 -13 0 -24 5 -24 10 0 6 -9 10 -20
10 -11 0 -20 5 -20 10 0 6 -9 10 -20 10 -11 0 -20 5 -20 10 0 6 -9 10 -20 10
-11 0 -20 5 -20 10 0 6 -9 10 -20 10 -11 0 -20 5 -20 10 0 6 -9 10 -20 10 -11
0 -20 5 -20 10 0 6 -9 10 -20 10 -11 0 -20 5 -20 10 0 6 -9 10 -20 10 -11 0
-20 5 -20 10 0 6 -9 10 -20 10 -11 0 -20 5 -20 10 0 6 -9 10 -20 10 -11 0 -20
5 -20 10 0 6 -9 10 -20 10 -11 0 -20 3 -20 8 0 8 -49 32 -67 32 -7 0 -13 5
-13 10 0 6 -9 10 -20 10 -15 0 -20 -7 -20 -24 0 -14 -4 -27 -9 -30 -5 -3 -11
-20 -14 -38 -4 -18 -11 -58 -18 -88 -17 -79 -23 -373 -9 -440 12 -61 45 -171
62 -210 31 -73 91 -180 100 -180 4 0 8 -6 8 -14 0 -18 213 -232 240 -241 11
-3 20 -10 20 -14 0 -4 22 -18 50 -32 27 -13 50 -27 50 -31 0 -5 9 -8 20 -8 11
0 20 -4 20 -10 0 -5 9 -10 19 -10 11 0 21 -3 23 -8 5 -13 190 -70 268 -82 87
-15 228 -8 315 15 87 23 232 94 275 135 3 3 33 32 67 64 l61 59 61 -32 c33
-17 67 -31 76 -31 8 0 15 -4 15 -10 0 -5 9 -10 20 -10 11 0 20 -4 20 -10 0 -5
6 -10 13 -10 18 0 67 -24 67 -32 0 -5 5 -8 12 -8 21 0 227 -104 233 -117 5
-15 -228 -253 -248 -253 -7 0 -19 -9 -27 -20 -8 -11 -21 -20 -30 -20 -9 0 -22
-9 -30 -20 -8 -11 -22 -20 -32 -20 -10 0 -18 -4 -18 -10 0 -5 -7 -10 -15 -10
-9 0 -25 -9 -37 -20 -12 -11 -32 -20 -45 -20 -13 0 -23 -4 -23 -10 0 -5 -9
-10 -20 -10 -11 0 -20 -4 -20 -10 0 -5 -9 -10 -20 -10 -11 0 -20 -4 -20 -10 0
-5 -13 -10 -30 -10 -16 0 -30 -4 -30 -10 0 -5 -18 -10 -40 -10 -22 0 -40 -4
-40 -10 0 -5 -19 -10 -43 -10 -24 0 -48 -5 -53 -10 -14 -14 -434 -14 -448 0
-5 5 -29 10 -52 10 -24 0 -46 5 -49 10 -3 5 -21 10 -40 10 -19 0 -37 5 -40 10
-3 5 -17 10 -30 10 -13 0 -27 5 -30 10 -3 5 -17 10 -31 10 -13 0 -24 5 -24 10
0 6 -13 10 -30 10 -16 0 -30 5 -30 10 0 6 -9 10 -20 10 -11 0 -20 5 -20 10 0
6 -6 10 -14 10 -16 0 -140 62 -144 73 -2 4 -12 7 -23 7 -10 0 -19 5 -19 10 0
6 -8 10 -18 10 -10 0 -24 9 -32 20 -8 11 -21 20 -30 20 -9 0 -22 9 -30 20 -8
11 -21 20 -28 20 -7 0 -31 18 -52 40 -21 22 -44 40 -50 40 -14 0 -180 168
-180 182 0 5 -13 23 -30 38 -16 15 -30 33 -30 39 0 6 -13 25 -30 43 -16 17
-30 37 -30 44 0 8 -4 14 -10 14 -5 0 -10 7 -10 16 0 16 -23 44 -35 44 -9 0 -2
-82 35 -385 6 -44 13 -110 16 -146 6 -63 5 -67 -17 -74 -24 -8 -117 -20 -239
-31 -36 -3 -69 -10 -74 -15 -6 -5 -32 -9 -60 -9 -27 0 -64 -5 -82 -12 -46 -16
-61 2 -68 88 -3 38 -10 105 -15 149 -6 44 -15 123 -21 175 -6 52 -15 129 -20
170 -5 41 -14 118 -20 170 -6 52 -15 129 -20 170 -5 41 -14 118 -20 170 -6 52
-15 130 -20 173 -6 42 -14 112 -20 155 -5 42 -14 120 -20 172 -6 52 -15 129
-20 170 -5 41 -14 118 -20 170 -6 52 -15 131 -21 175 -5 44 -14 117 -19 163
-6 45 -14 119 -20 165 -5 45 -14 118 -19 162 -5 44 -15 123 -21 175 -6 52 -16
131 -21 175 -13 110 -27 229 -39 330 -5 47 -14 123 -20 170 -5 47 -14 123 -20
170 -12 101 -26 220 -39 330 -12 101 -30 248 -41 345 -5 41 -12 89 -15 106 -8
38 1 43 105 55 41 5 111 13 155 19 44 6 112 14 152 18 39 4 75 10 78 14 14 14
43 -17 49 -51z m-780 -193 c7 -82 20 -210 36 -343 6 -49 15 -130 21 -180 5
-49 14 -126 19 -170 5 -44 11 -105 15 -135 3 -30 8 -75 11 -100 3 -25 9 -85
15 -135 11 -107 25 -226 39 -350 6 -49 15 -126 20 -170 13 -113 29 -255 40
-357 6 -49 15 -128 20 -178 6 -49 15 -132 20 -182 6 -51 15 -131 20 -178 5
-47 14 -125 20 -175 5 -49 14 -128 20 -175 25 -219 30 -259 35 -310 3 -30 8
-73 11 -95 3 -22 10 -80 15 -130 9 -88 20 -186 39 -355 5 -47 14 -125 20 -175
5 -49 14 -130 20 -180 6 -49 14 -128 19 -175 4 -47 10 -92 12 -100 3 -12 -10
-17 -61 -23 -36 -4 -101 -12 -145 -18 -44 -5 -113 -12 -152 -15 -40 -3 -73
-10 -73 -15 0 -5 -22 -9 -49 -9 -63 0 -57 -20 -87 303 -3 42 -11 77 -15 77 -5
0 -9 -8 -9 -18 0 -10 -9 -24 -20 -32 -11 -8 -20 -22 -20 -31 0 -10 -3 -19 -7
-21 -5 -1 -19 -24 -32 -50 -13 -27 -28 -48 -33 -48 -4 0 -8 -7 -8 -16 0 -9 -8
-24 -18 -33 -9 -9 -23 -28 -31 -43 -8 -16 -18 -28 -23 -28 -4 0 -8 -6 -8 -13
0 -7 -26 -40 -57 -74 -32 -33 -63 -68 -69 -78 -6 -10 -19 -23 -29 -29 -10 -6
-49 -41 -86 -78 -38 -38 -74 -68 -81 -68 -8 0 -20 -9 -28 -20 -8 -11 -21 -20
-30 -20 -9 0 -22 -9 -30 -20 -8 -11 -22 -20 -32 -20 -10 0 -18 -4 -18 -10 0
-5 -9 -10 -19 -10 -11 0 -21 -3 -23 -7 -4 -11 -87 -53 -104 -53 -8 0 -14 -4
-14 -10 0 -5 -9 -10 -20 -10 -11 0 -20 -4 -20 -10 0 -5 -13 -10 -30 -10 -16 0
-30 -4 -30 -10 0 -5 -15 -10 -34 -10 -19 0 -38 -4 -41 -10 -3 -5 -21 -10 -40
-10 -19 0 -36 -4 -39 -9 -6 -9 -146 -23 -246 -24 -72 0 -207 16 -285 33 -27 6
-65 14 -82 17 -18 3 -33 9 -33 14 0 5 -13 9 -30 9 -16 0 -30 5 -30 10 0 6 -11
10 -24 10 -14 0 -28 5 -31 10 -3 6 -15 10 -26 10 -10 0 -19 5 -19 10 0 6 -6
10 -14 10 -16 0 -140 62 -144 73 -2 4 -12 7 -23 7 -10 0 -19 4 -19 9 0 5 -13
14 -30 21 -16 7 -30 16 -30 21 0 5 -8 9 -18 9 -10 0 -24 9 -32 20 -8 11 -18
20 -23 20 -13 0 -87 54 -137 99 -24 23 -48 41 -53 41 -5 0 -26 18 -47 40 -21
22 -44 40 -50 40 -7 0 -25 14 -40 30 -15 17 -33 30 -40 30 -6 0 -29 18 -50 40
-21 22 -44 40 -50 40 -7 0 -25 14 -40 30 -15 17 -33 30 -40 30 -6 0 -29 18
-50 40 -21 22 -44 40 -50 40 -7 0 -25 14 -40 30 -15 17 -33 30 -40 30 -6 0
-29 18 -50 40 -21 22 -44 40 -50 40 -7 0 -25 14 -40 30 -15 17 -33 30 -40 30
-7 0 -25 14 -40 30 -15 17 -33 30 -40 30 -6 0 -29 18 -50 40 -21 22 -44 40
-50 40 -7 0 -25 14 -40 30 -15 17 -33 30 -40 30 -6 0 -29 18 -50 40 -21 22
-44 40 -50 40 -7 0 -25 14 -40 30 -15 17 -33 30 -40 30 -6 0 -29 18 -50 40
-21 22 -43 40 -48 40 -5 0 -23 14 -40 30 -39 37 -68 41 -57 8 4 -13 11 -43 15
-68 5 -25 13 -65 19 -90 5 -25 14 -72 21 -105 12 -63 21 -103 40 -195 6 -30
15 -76 21 -102 5 -27 14 -70 19 -98 6 -27 15 -72 20 -100 6 -27 14 -71 20 -97
5 -27 14 -73 20 -103 6 -30 15 -76 20 -102 30 -146 49 -245 59 -303 10 -58 -2
-75 -55 -75 -18 0 -36 -4 -39 -10 -3 -6 -24 -10 -45 -10 -21 0 -41 -4 -44 -9
-6 -8 -31 -14 -133 -27 -24 -3 -43 -10 -43 -15 0 -5 -18 -9 -39 -9 -22 0 -43
-4 -46 -10 -3 -5 -26 -10 -51 -10 -40 0 -44 2 -44 24 0 14 -4 28 -10 31 -5 3
-10 26 -10 50 0 24 -5 47 -10 50 -5 3 -10 26 -10 50 0 24 -4 47 -10 50 -5 3
-10 25 -10 49 0 23 -4 46 -9 52 -8 8 -12 27 -27 139 -3 22 -9 49 -14 60 -5 11
-11 36 -14 55 -5 33 -14 83 -36 188 -5 26 -14 71 -20 100 -5 28 -14 75 -20
102 -5 28 -14 73 -20 100 -5 28 -14 73 -20 100 -5 28 -14 71 -20 98 -5 26 -14
71 -20 100 -5 28 -14 73 -20 100 -5 26 -14 71 -20 100 -5 28 -14 73 -20 100
-5 26 -14 70 -19 97 -6 28 -15 73 -20 100 -26 127 -32 163 -38 200 -3 22 -9
44 -14 49 -5 6 -9 29 -9 52 0 24 -4 46 -10 49 -5 3 -10 26 -10 51 0 24 -4 44
-10 44 -5 0 -10 23 -10 50 0 28 -4 50 -10 50 -5 0 -10 23 -10 50 0 28 -4 50
-10 50 -5 0 -10 23 -10 50 0 28 -4 50 -10 50 -5 0 -10 20 -10 44 0 25 -5 48
-10 51 -5 3 -10 26 -10 50 0 24 -5 47 -10 50 -6 3 -10 26 -10 50 0 24 -4 47
-10 50 -5 3 -10 26 -10 50 0 24 -4 47 -10 50 -5 3 -10 26 -10 50 0 24 -5 47
-10 50 -6 3 -10 26 -10 50 0 24 -4 47 -10 50 -5 3 -10 26 -10 50 0 24 -5 47
-10 50 -6 3 -10 26 -10 50 0 24 -4 47 -10 50 -5 3 -10 26 -10 50 0 24 -4 47
-10 50 -5 3 -10 26 -10 50 0 24 -4 47 -10 50 -5 3 -10 25 -10 49 0 23 -4 46
-9 52 -5 5 -11 27 -14 49 -4 22 -11 64 -16 93 -26 128 -32 155 -41 205 -13 66
-28 139 -40 200 -25 119 -31 155 -37 192 -3 22 -9 44 -13 49 -13 13 11 32 50
40 19 4 58 11 85 17 28 5 67 13 88 16 20 3 40 9 43 14 3 5 23 9 44 9 21 0 41
4 44 9 6 9 50 18 142 27 l50 6 13 -59 c19 -89 28 -132 41 -198 6 -33 16 -78
20 -100 11 -49 18 -86 31 -147 5 -27 14 -70 19 -98 6 -27 14 -71 19 -97 12
-66 31 -159 42 -213 9 -43 16 -76 39 -190 6 -27 15 -72 20 -100 26 -129 31
-157 36 -190 3 -19 9 -44 14 -55 5 -11 11 -38 14 -60 5 -37 11 -70 36 -192 22
-108 31 -160 37 -198 3 -22 9 -44 14 -49 5 -6 9 -29 9 -52 0 -24 5 -46 10 -49
6 -3 10 -25 10 -49 0 -23 4 -46 9 -52 5 -5 11 -29 14 -54 3 -25 10 -67 16 -95
6 -27 15 -72 20 -100 6 -27 15 -72 21 -100 5 -27 13 -67 16 -87 4 -21 9 -38
11 -38 10 0 33 30 33 43 0 9 3 17 8 19 10 4 72 128 72 144 0 8 5 14 10 14 6 0
10 9 10 20 0 11 5 20 10 20 6 0 10 9 10 20 0 11 5 20 10 20 6 0 10 9 10 20 0
11 5 20 10 20 6 0 10 9 10 20 0 11 5 20 10 20 6 0 10 7 10 15 0 9 9 25 20 37
11 12 20 28 20 35 0 7 5 13 10 13 6 0 10 9 10 20 0 11 5 20 10 20 6 0 10 9 10
20 0 11 5 20 10 20 6 0 10 9 10 20 0 11 5 20 10 20 6 0 10 9 10 20 0 11 5 20
10 20 6 0 10 9 10 20 0 11 5 20 10 20 6 0 10 9 10 20 0 11 5 20 10 20 6 0 10
9 10 20 0 11 5 20 10 20 6 0 10 9 10 20 0 11 5 20 10 20 6 0 10 9 10 20 0 11
5 20 10 20 6 0 10 6 10 13 0 7 9 23 20 35 11 12 20 28 20 37 0 8 5 15 10 15 6
0 10 9 10 20 0 11 5 20 10 20 6 0 10 9 10 20 0 11 5 20 10 20 6 0 10 9 10 20
0 11 5 20 10 20 6 0 10 9 10 20 0 11 5 20 10 20 6 0 10 9 10 20 0 11 5 20 10
20 6 0 10 9 10 20 0 11 5 20 10 20 6 0 10 9 10 20 0 11 5 20 10 20 6 0 10 9
10 20 0 11 5 20 10 20 6 0 10 7 10 15 0 9 9 25 20 37 11 12 20 28 20 35 0 7 5
13 10 13 6 0 10 9 10 20 0 11 5 20 10 20 6 0 10 9 10 20 0 11 5 20 10 20 6 0
10 9 10 20 0 11 5 20 10 20 6 0 10 9 10 20 0 11 5 20 10 20 6 0 10 9 10 20 0
11 5 20 10 20 6 0 10 9 10 20 0 11 5 20 10 20 6 0 10 9 10 20 0 11 5 20 10 20
6 0 10 9 10 20 0 11 5 20 10 20 6 0 10 8 10 18 0 25 59 47 158 59 23 3 42 9
42 13 0 4 19 11 43 14 102 13 127 19 133 27 3 5 23 9 44 9 21 0 42 5 45 10 3
6 24 10 45 10 21 0 42 5 45 10 3 6 24 10 46 10 21 0 39 5 39 10 0 6 16 10 35
10 19 0 46 5 60 12 34 15 56 -3 32 -27 -9 -9 -24 -33 -34 -53 -9 -20 -23 -43
-30 -50 -7 -7 -20 -30 -30 -50 -9 -20 -28 -55 -43 -77 -14 -22 -32 -53 -40
-70 -8 -16 -26 -48 -40 -70 -14 -22 -32 -53 -40 -70 -8 -16 -17 -32 -20 -35
-6 -6 -26 -41 -62 -110 -16 -30 -33 -59 -38 -65 -4 -5 -17 -26 -28 -46 -40
-72 -47 -84 -52 -89 -3 -3 -20 -34 -39 -70 -19 -36 -37 -67 -40 -70 -3 -3 -13
-18 -21 -35 -8 -16 -26 -48 -39 -70 -14 -22 -38 -65 -54 -95 -16 -30 -34 -62
-41 -70 -7 -8 -20 -32 -30 -52 -9 -20 -22 -43 -29 -50 -6 -7 -27 -42 -46 -78
-19 -36 -37 -67 -40 -70 -3 -3 -13 -18 -21 -35 -8 -16 -26 -48 -39 -70 -14
-22 -38 -65 -54 -95 -16 -30 -34 -62 -41 -70 -7 -8 -20 -32 -30 -52 -9 -20
-22 -43 -29 -50 -6 -7 -27 -42 -46 -78 -19 -36 -39 -68 -44 -72 -11 -7 53 -78
70 -78 6 0 18 -9 28 -20 10 -11 24 -20 31 -20 7 0 21 -11 31 -23 10 -13 29
-30 43 -37 13 -7 35 -23 49 -36 14 -13 29 -24 32 -24 3 0 19 -11 35 -25 50
-43 53 -38 57 123 3 81 10 172 16 202 7 30 15 74 18 98 3 23 9 42 14 42 5 0 9
14 9 30 0 17 5 30 10 30 6 0 10 14 10 30 0 17 5 30 10 30 6 0 10 14 10 30 0
17 5 30 10 30 6 0 10 9 10 20 0 11 5 20 10 20 6 0 10 9 10 20 0 11 5 20 10 20
6 0 10 9 10 20 0 11 5 20 10 20 6 0 10 9 10 20 0 11 5 20 10 20 6 0 10 9 10
20 0 11 5 20 10 20 6 0 10 8 10 18 0 10 9 24 20 32 11 8 20 21 20 30 0 9 9 22
20 30 11 8 20 21 20 30 0 9 9 22 20 30 11 8 20 21 20 28 0 8 14 27 30 42 17
15 30 33 30 38 0 14 206 222 220 222 7 0 25 14 40 30 15 17 34 30 42 30 7 0
20 9 28 20 8 11 21 20 30 20 9 0 22 9 30 20 8 11 22 20 32 20 10 0 18 5 18 10
0 6 9 10 20 10 11 0 20 5 20 10 0 6 9 10 20 10 11 0 20 5 20 10 0 6 9 10 20
10 11 0 20 5 20 10 0 6 11 10 23 10 13 0 27 3 31 7 11 11 79 33 104 33 12 0
22 5 22 10 0 6 16 10 36 10 19 0 44 5 55 10 24 14 406 15 422 2 7 -6 30 -12
52 -15 88 -13 115 -20 115 -28 0 -5 14 -9 30 -9 17 0 30 -4 30 -10 0 -5 14
-10 30 -10 17 0 30 -4 30 -10 0 -5 9 -10 20 -10 11 0 20 -4 20 -10 0 -5 9 -10
20 -10 11 0 20 -4 20 -10 0 -5 9 -10 20 -10 11 0 20 -4 20 -10 0 -5 9 -10 20
-10 11 0 20 -4 20 -10 0 -5 9 -10 20 -10 11 0 20 -4 20 -10 0 -5 6 -10 13 -10
8 0 22 -9 32 -20 10 -11 23 -20 30 -20 7 0 20 -9 30 -20 10 -11 23 -20 30 -20
6 0 27 -16 46 -36 18 -20 42 -39 51 -43 9 -3 53 -42 98 -85 85 -84 90 -95 51
-141 -9 -11 -28 -37 -42 -57 -13 -21 -27 -38 -31 -38 -5 0 -8 -6 -8 -13 0 -8
-9 -22 -20 -32 -11 -10 -20 -23 -20 -30 0 -7 -9 -20 -20 -30 -11 -10 -20 -23
-20 -29 0 -6 -14 -25 -30 -43 -17 -18 -30 -36 -30 -41 0 -5 -9 -17 -20 -27
-11 -10 -20 -23 -20 -28 0 -6 -7 -19 -17 -29 -9 -10 -21 -27 -27 -37 -27 -47
-81 -121 -88 -121 -5 0 -8 -6 -8 -13 0 -8 -9 -22 -20 -32 -11 -10 -20 -23 -20
-30 0 -7 -9 -20 -20 -30 -11 -10 -20 -23 -20 -29 0 -6 -14 -25 -30 -43 -17
-18 -30 -36 -30 -41 0 -5 -9 -17 -20 -27 -11 -10 -20 -23 -20 -30 0 -7 -9 -20
-20 -30 -11 -10 -20 -23 -20 -30 0 -7 -9 -20 -20 -30 -11 -10 -20 -23 -20 -30
0 -7 -13 -26 -30 -43 -16 -18 -30 -36 -30 -40 0 -5 -8 -17 -17 -28 -10 -10
-24 -31 -32 -46 -8 -16 -18 -28 -23 -28 -4 0 -8 -6 -8 -14 0 -7 -12 -26 -27
-42 -16 -16 -34 -42 -42 -57 -8 -15 -18 -27 -23 -27 -4 0 -8 -6 -8 -13 0 -7
-8 -22 -17 -33 -10 -10 -24 -31 -32 -46 -8 -16 -18 -28 -23 -28 -4 0 -8 -6 -8
-14 0 -7 -13 -27 -30 -44 -16 -18 -30 -36 -30 -40 0 -5 -8 -17 -17 -28 -10
-10 -24 -31 -32 -46 -8 -16 -18 -28 -23 -28 -4 0 -8 -6 -8 -14 0 -7 -12 -26
-27 -42 -16 -16 -34 -42 -42 -57 -8 -15 -18 -27 -23 -27 -4 0 -8 -6 -8 -13 0
-7 -8 -22 -17 -33 -10 -10 -24 -31 -32 -46 -8 -16 -18 -28 -23 -28 -4 0 -8 -6
-8 -12 0 -7 -14 -27 -30 -45 -36 -38 -41 -83 -10 -83 11 0 20 -4 20 -8 0 -7
176 -95 225 -112 55 -20 95 -29 150 -35 33 -3 74 -8 90 -10 55 -6 209 16 282
41 76 25 164 63 173 74 3 4 16 13 30 20 14 7 40 25 58 39 47 37 192 179 192
188 0 5 12 22 28 38 15 17 33 42 41 58 8 15 18 27 23 27 4 0 8 9 8 19 0 11 3
21 8 23 12 5 72 129 72 149 0 10 5 21 10 24 6 3 10 17 10 30 0 13 5 27 10 30
6 3 10 24 10 46 0 21 5 39 10 39 8 0 10 53 7 163 -5 168 -13 237 -28 237 -5 0
-9 14 -9 30 0 17 -4 30 -10 30 -5 0 -10 9 -10 20 0 11 -11 39 -25 62 -14 24
-28 51 -32 61 -3 9 -9 17 -14 17 -17 0 -9 36 11 50 11 8 20 21 20 28 0 8 14
27 30 42 17 15 30 34 30 42 0 7 9 20 20 28 11 8 20 21 20 30 0 9 9 22 20 30
11 8 20 21 20 30 0 9 9 22 20 30 11 8 20 20 20 26 0 6 14 25 30 42 17 18 30
39 30 47 0 8 5 15 11 15 11 0 9 49 -11 225 -9 79 -22 191 -40 355 -5 47 -14
126 -20 175 -5 50 -14 128 -19 175 -6 47 -15 130 -21 185 -6 55 -15 141 -21
190 -5 50 -14 124 -19 165 -5 41 -14 120 -20 175 -6 55 -15 136 -20 180 -5 44
-14 125 -20 180 -6 55 -15 137 -20 183 -6 45 -14 119 -20 165 -5 45 -12 114
-16 153 l-6 71 28 7 c28 7 106 17 272 34 45 5 85 12 89 16 3 3 39 6 79 6 l72
0 6 -72z"/>
<path d="M8356 6478 c-96 -21 -254 -92 -299 -133 -14 -14 -30 -25 -35 -25 -12
0 -202 -189 -202 -201 0 -5 -13 -23 -30 -41 -16 -17 -30 -36 -30 -43 0 -6 -8
-20 -17 -31 -21 -24 -46 -65 -41 -69 13 -11 456 -225 466 -225 7 0 12 -4 12
-10 0 -5 7 -10 15 -10 9 0 125 -54 258 -120 134 -66 249 -120 255 -120 7 0 12
-4 12 -10 0 -5 7 -10 15 -10 9 0 125 -54 258 -120 134 -66 249 -120 255 -120
7 0 12 -4 12 -10 0 -5 7 -10 16 -10 8 0 51 -18 95 -40 91 -45 109 -49 109 -20
0 11 5 20 10 20 6 0 10 14 10 30 0 17 4 30 9 30 5 0 11 15 14 33 4 17 12 57
18 87 22 99 12 440 -12 440 -5 0 -9 14 -9 30 0 17 -4 30 -10 30 -5 0 -10 14
-10 30 0 17 -4 30 -10 30 -5 0 -10 9 -10 20 0 11 -4 20 -10 20 -5 0 -10 9 -10
20 0 11 -4 20 -10 20 -5 0 -10 8 -10 18 0 10 -9 24 -20 32 -11 8 -20 21 -20
30 -1 8 -19 33 -40 55 -22 22 -40 44 -40 48 0 10 -98 107 -108 107 -4 0 -18
10 -32 23 -14 12 -47 37 -75 54 -27 18 -54 36 -60 41 -17 14 -138 69 -200 91
-143 51 -339 63 -489 29z"/>
<path d="M4090 5721 c-8 -6 -30 -11 -48 -11 -18 0 -40 -4 -50 -9 -9 -5 -35
-14 -57 -21 -56 -17 -141 -58 -155 -75 -7 -8 -18 -15 -25 -15 -6 0 -20 -9 -30
-20 -10 -11 -23 -20 -30 -20 -13 0 -215 -204 -215 -218 0 -5 -9 -17 -20 -27
-11 -10 -20 -23 -20 -30 0 -6 -8 -20 -18 -31 -18 -20 -72 -126 -93 -184 -7
-19 -16 -39 -21 -44 -4 -6 -8 -25 -8 -42 0 -18 -4 -35 -9 -38 -24 -15 -33
-300 -12 -401 6 -33 15 -75 18 -93 3 -18 9 -35 14 -38 5 -3 9 -13 9 -23 0 -25
86 -192 140 -271 47 -70 138 -162 155 -157 5 2 15 13 21 25 6 12 17 30 25 39
8 10 21 30 29 46 7 15 17 27 22 27 4 0 8 6 8 13 0 6 12 26 28 42 15 17 33 42
41 58 8 15 18 27 23 27 4 0 8 6 8 13 0 7 9 23 20 35 11 12 20 25 20 30 0 5 9
17 20 27 11 10 20 23 20 29 0 6 14 25 30 43 17 18 30 36 30 41 0 4 8 17 18 28
9 10 23 31 31 47 8 15 18 27 23 27 4 0 8 6 8 13 0 6 12 26 28 42 15 17 33 42
41 58 8 15 18 27 23 27 4 0 8 8 8 18 0 10 9 24 20 32 11 8 20 21 20 30 0 9 9
22 20 30 11 8 20 20 20 26 0 6 14 25 30 42 17 18 30 38 30 45 0 7 9 19 20 27
11 8 20 21 20 30 0 9 9 22 20 30 11 8 20 20 20 26 0 6 14 25 30 42 17 18 30
38 30 45 0 7 9 19 20 27 11 8 20 21 20 30 0 9 9 22 20 30 11 8 20 21 20 30 0
9 9 22 20 30 11 8 20 20 20 26 0 6 14 25 30 42 17 18 30 38 30 45 0 7 9 19 20
27 11 8 20 21 20 29 0 7 8 21 18 30 20 19 42 56 42 72 0 15 -26 39 -42 39 -8
0 -20 9 -28 20 -8 11 -22 20 -32 20 -10 0 -18 5 -18 10 0 6 -9 10 -20 10 -11
0 -20 5 -20 10 0 6 -9 10 -20 10 -11 0 -20 5 -20 10 0 6 -13 10 -30 10 -16 0
-30 5 -30 10 0 6 -13 10 -30 10 -16 0 -30 4 -30 9 0 19 -265 38 -290 22z"/>
</g>
</svg>
